<?xml version="1.0" standalone="no"?>
<!DOCTYPE svg PUBLIC "-//W3C//DTD SVG 20010904//EN"
 "http://www.w3.org/TR/2001/REC-SVG-20010904/DTD/svg10.dtd">
<svg version="1.0" xmlns="http://www.w3.org/2000/svg"
 width="512.000000pt" height="512.000000pt" viewBox="0 0 512.000000 512.000000"
 preserveAspectRatio="xMidYMid meet">
<metadata>
Created by potrace 1.11, written by Peter Selinger 2001-2013
</metadata>
<g transform="translate(0.000000,512.000000) scale(0.100000,-0.100000)"
fill="#000000" stroke="none">
<path d="M841 3755 c-172 -39 -283 -144 -327 -308 -19 -70 -18 -248 1 -322 41
-157 154 -266 315 -306 107 -26 321 -12 422 28 l36 15 4 70 c2 38 2 71 1 72
-2 1 -42 -11 -90 -28 -116 -39 -240 -42 -320 -7 -116 51 -174 159 -174 320 1
169 46 261 156 316 92 46 191 41 403 -21 23 -6 23 -6 20 72 l-3 79 -60 13
c-97 20 -309 24 -384 7z"/>
<path d="M1720 3753 c-132 -36 -235 -126 -285 -250 -37 -90 -47 -276 -20 -369
53 -184 177 -295 360 -324 118 -19 265 8 353 64 136 86 213 265 199 461 -15
200 -114 341 -286 406 -79 30 -233 35 -321 12z m250 -143 c49 -25 95 -81 122
-150 31 -77 32 -270 1 -346 -44 -112 -127 -174 -230 -174 -118 0 -199 69 -238
205 -26 90 -18 262 16 336 65 139 203 193 329 129z"/>
<path d="M2400 3739 c0 -9 271 -752 325 -892 7 -16 19 -17 107 -15 l100 3 159
444 c87 244 159 450 159 458 0 9 -18 13 -68 13 l-69 0 -125 -351 -125 -351
-103 278 c-57 154 -115 311 -130 349 l-26 70 -102 3 c-73 2 -102 -1 -102 -9z"/>
<path d="M3380 3290 l0 -460 95 0 95 0 0 460 0 460 -95 0 -95 0 0 -460z"/>
<path d="M3798 3744 c-5 -4 -8 -212 -8 -461 l0 -454 263 3 c246 3 265 5 317
27 108 45 187 127 232 240 19 48 22 76 23 196 0 155 -8 192 -57 275 -41 68
-114 124 -198 152 -58 19 -93 22 -315 26 -137 2 -253 0 -257 -4z m490 -162
c93 -49 137 -154 130 -316 -5 -121 -31 -189 -89 -240 -52 -44 -95 -56 -226
-63 l-113 -6 0 328 0 327 128 -4 c108 -3 133 -7 170 -26z"/>
<path d="M2050 2281 c-80 -21 -157 -41 -172 -44 -27 -7 -28 -10 -28 -66 l0
-59 90 23 90 23 0 -334 0 -334 -90 0 -90 0 0 -55 0 -55 275 0 275 0 0 55 0 55
-90 0 -90 0 0 415 c0 326 -3 415 -12 414 -7 0 -78 -18 -158 -38z"/>
<path d="M2799 2304 c-79 -27 -140 -81 -179 -158 -32 -63 -35 -77 -34 -150 0
-98 16 -137 79 -205 100 -107 248 -121 368 -35 l47 34 0 -25 c0 -40 -21 -128
-40 -165 -23 -44 -76 -95 -113 -109 -56 -22 -138 -14 -274 25 -22 6 -23 4 -23
-64 l0 -70 83 -12 c124 -19 249 -10 318 22 154 71 236 215 246 433 11 230 -61
391 -204 461 -71 35 -201 43 -274 18z m192 -127 c48 -31 80 -101 81 -174 1
-106 -50 -172 -141 -180 -58 -6 -107 24 -136 82 -27 57 -27 166 1 220 37 72
128 97 195 52z"/>
</g>
</svg>
