<?xml version="1.0" standalone="no"?>
<!DOCTYPE svg PUBLIC "-//W3C//DTD SVG 20010904//EN"
 "http://www.w3.org/TR/2001/REC-SVG-20010904/DTD/svg10.dtd">
<svg version="1.0" xmlns="http://www.w3.org/2000/svg"
 width="512.000000pt" height="512.000000pt" viewBox="0 0 512.000000 512.000000"
 preserveAspectRatio="xMidYMid meet">
<metadata>
Created by potrace 1.11, written by Peter Selinger 2001-2013
</metadata>
<g transform="translate(0.000000,512.000000) scale(0.100000,-0.100000)"
fill="#000000" stroke="none">
<path d="M841 3755 c-173 -39 -282 -144 -326 -312 -20 -75 -19 -242 0 -318 41
-157 154 -266 315 -306 108 -26 321 -12 423 28 l37 15 0 74 0 73 -37 -16 c-83
-34 -141 -46 -228 -47 -73 0 -99 4 -140 22 -135 62 -195 196 -174 392 14 124
68 209 161 251 87 38 196 31 396 -27 23 -6 23 -6 20 72 l-3 78 -60 13 c-98 21
-310 25 -384 8z"/>
<path d="M1735 3756 c-82 -20 -146 -56 -206 -115 -91 -92 -129 -194 -129 -351
0 -212 85 -367 243 -440 147 -69 355 -58 485 24 158 100 234 320 187 541 -48
225 -221 357 -464 354 -36 0 -89 -6 -116 -13z m233 -145 c51 -26 97 -81 124
-151 30 -74 32 -258 5 -337 -41 -118 -125 -183 -234 -183 -114 1 -197 68 -234
193 -31 99 -24 268 12 348 65 139 202 194 327 130z"/>
<path d="M2400 3739 c0 -9 255 -705 328 -897 3 -9 30 -12 104 -10 l100 3 159
445 c87 245 159 451 159 458 0 8 -20 12 -68 12 l-68 0 -124 -349 c-69 -192
-126 -348 -128 -346 -2 2 -61 158 -131 347 l-127 343 -102 3 c-73 2 -102 -1
-102 -9z"/>
<path d="M3380 3290 l0 -460 95 0 95 0 0 460 0 460 -95 0 -95 0 0 -460z"/>
<path d="M3800 3290 l0 -460 233 0 c127 0 252 5 276 11 73 16 149 60 200 114
87 92 121 189 121 345 0 206 -68 333 -213 401 -84 39 -166 49 -409 49 l-208 0
0 -460z m488 292 c95 -50 137 -155 130 -321 -6 -124 -28 -182 -89 -235 -52
-44 -95 -56 -226 -63 l-113 -6 0 328 0 327 128 -4 c108 -3 133 -7 170 -26z"/>
<path d="M2050 2281 c-80 -21 -157 -41 -172 -44 -27 -7 -28 -10 -28 -66 l0
-59 90 23 90 23 0 -334 0 -334 -90 0 -90 0 0 -55 0 -55 275 0 275 0 0 55 0 55
-90 0 -90 0 0 415 c0 326 -3 415 -12 414 -7 0 -78 -18 -158 -38z"/>
<path d="M2799 2304 c-79 -27 -140 -81 -179 -158 -32 -62 -35 -77 -35 -150 0
-64 5 -91 23 -127 47 -97 132 -157 234 -166 74 -7 139 11 196 55 l45 34 -7
-56 c-13 -117 -74 -217 -149 -245 -56 -22 -138 -14 -274 25 -22 6 -23 4 -23
-64 l0 -70 83 -12 c202 -30 343 4 437 107 89 97 130 218 130 388 0 206 -74
356 -207 421 -71 35 -201 43 -274 18z m200 -131 c43 -32 71 -98 71 -171 0
-110 -47 -171 -139 -179 -94 -9 -155 66 -156 192 0 85 24 139 76 167 42 23
109 19 148 -9z"/>
</g>
</svg>
