<?xml version="1.0" standalone="no"?>
<!DOCTYPE svg PUBLIC "-//W3C//DTD SVG 20010904//EN"
 "http://www.w3.org/TR/2001/REC-SVG-20010904/DTD/svg10.dtd">
<svg version="1.0" xmlns="http://www.w3.org/2000/svg"
 width="512.000000pt" height="512.000000pt" viewBox="0 0 512.000000 512.000000"
 preserveAspectRatio="xMidYMid meet">
<metadata>
Created by potrace 1.11, written by Peter Selinger 2001-2013
</metadata>
<g transform="translate(0.000000,512.000000) scale(0.100000,-0.100000)"
fill="#000000" stroke="none">
<path d="M627 2899 c-193 -28 -297 -169 -285 -384 11 -173 88 -278 237 -322
69 -20 243 -13 314 12 l47 17 0 52 0 53 -67 -23 c-117 -40 -233 -29 -298 27
-56 50 -79 110 -79 209 0 99 14 148 57 197 42 48 99 73 167 73 50 0 148 -18
193 -35 15 -6 17 0 17 48 0 44 -4 57 -17 61 -19 6 -201 26 -218 25 -5 -1 -36
-5 -68 -10z"/>
<path d="M1305 2899 c-74 -12 -120 -34 -172 -82 -55 -51 -88 -113 -103 -197
-32 -174 41 -340 178 -407 52 -26 66 -28 167 -27 89 0 119 4 156 21 101 46
160 124 185 244 37 176 -32 346 -167 414 -40 21 -152 47 -184 44 -5 -1 -33 -5
-60 -10z m132 -100 c38 -14 81 -56 106 -104 29 -56 36 -203 12 -274 -63 -191
-285 -199 -355 -13 -18 47 -21 73 -18 152 3 84 7 102 34 150 48 85 138 121
221 89z"/>
<path d="M3753 2867 l-123 -31 0 -38 c0 -43 -3 -43 70 -23 30 8 58 15 63 15 4
0 6 -116 5 -257 l-3 -258 -67 -3 -68 -3 0 -34 0 -35 205 0 205 0 0 35 0 35
-70 0 -70 0 0 315 c0 246 -3 315 -12 314 -7 -1 -68 -15 -135 -32z"/>
<path d="M4325 2881 c-85 -40 -135 -120 -135 -218 0 -71 25 -127 73 -170 76
-67 179 -69 264 -7 17 13 34 24 37 24 6 0 -2 -60 -16 -113 -12 -49 -69 -113
-115 -128 -39 -13 -110 -6 -173 16 l-40 14 0 -49 0 -48 72 -12 c231 -39 375
64 409 293 27 182 -36 344 -156 398 -54 25 -166 25 -220 0z m166 -77 c62 -31
89 -156 49 -221 -21 -34 -66 -63 -100 -63 -90 0 -146 124 -104 230 26 65 91
87 155 54z"/>
<path d="M1808 2817 c15 -40 72 -195 127 -345 l100 -272 75 0 75 0 120 336
c66 185 122 341 124 346 1 5 -21 8 -50 6 l-54 -3 -94 -263 c-84 -235 -96 -261
-106 -240 -6 12 -52 132 -101 266 l-89 242 -77 0 -77 0 27 -73z"/>
<path d="M2530 2545 l0 -345 70 0 70 0 0 345 0 345 -70 0 -70 0 0 -345z"/>
<path d="M2850 2546 l0 -346 185 0 c221 0 268 12 345 90 68 67 93 138 93 265
1 89 -2 107 -28 163 -17 39 -44 76 -68 97 -68 59 -109 67 -329 73 l-198 4 0
-346z m342 234 c44 -13 89 -62 113 -124 13 -35 16 -66 13 -134 -8 -163 -67
-220 -239 -230 l-89 -5 0 252 0 251 83 0 c45 0 99 -5 119 -10z"/>
</g>
</svg>
