<?xml version="1.0" standalone="no"?>
<!DOCTYPE svg PUBLIC "-//W3C//DTD SVG 20010904//EN"
 "http://www.w3.org/TR/2001/REC-SVG-20010904/DTD/svg10.dtd">
<svg version="1.0" xmlns="http://www.w3.org/2000/svg"
 width="512.000000pt" height="512.000000pt" viewBox="0 0 512.000000 512.000000"
 preserveAspectRatio="xMidYMid meet">
<metadata>
Created by potrace 1.11, written by Peter Selinger 2001-2013
</metadata>
<g transform="translate(0.000000,512.000000) scale(0.100000,-0.100000)"
fill="#000000" stroke="none">
<path d="M841 3755 c-174 -39 -282 -143 -326 -312 -20 -75 -19 -242 0 -318 41
-157 154 -266 315 -306 108 -26 321 -12 423 28 l37 15 0 74 0 73 -45 -19 c-72
-31 -200 -53 -263 -46 -197 23 -296 176 -271 416 14 124 68 209 161 251 87 38
196 31 396 -27 23 -6 23 -6 20 72 l-3 78 -60 13 c-96 21 -309 25 -384 8z"/>
<path d="M1733 3756 c-159 -39 -275 -154 -319 -319 -18 -69 -18 -228 1 -300
47 -181 176 -298 360 -327 118 -19 265 8 353 64 158 100 234 320 187 541 -48
225 -221 357 -464 354 -36 0 -89 -6 -118 -13z m237 -146 c49 -25 95 -81 122
-150 32 -80 32 -269 -1 -352 -28 -72 -92 -139 -147 -156 -146 -43 -269 27
-315 181 -31 99 -24 268 12 348 65 139 203 193 329 129z"/>
<path d="M2400 3739 c0 -9 271 -752 325 -892 7 -16 19 -17 107 -15 l100 3 159
445 c87 245 159 451 159 458 0 8 -20 12 -68 12 l-68 0 -125 -349 c-68 -192
-125 -348 -127 -346 -2 2 -61 158 -131 347 l-127 343 -102 3 c-73 2 -102 -1
-102 -9z"/>
<path d="M3380 3290 l0 -460 95 0 95 0 0 460 0 460 -95 0 -95 0 0 -460z"/>
<path d="M3797 3743 c-4 -3 -7 -211 -7 -460 l0 -454 263 3 c253 3 264 4 320
28 109 47 184 126 229 241 26 66 36 246 19 329 -36 172 -153 281 -331 309 -71
12 -483 15 -493 4z m491 -161 c95 -50 137 -155 130 -321 -6 -124 -28 -182 -89
-235 -52 -44 -95 -56 -226 -63 l-113 -6 0 328 0 327 128 -4 c108 -3 133 -7
170 -26z"/>
<path d="M2050 2281 c-80 -21 -157 -41 -172 -44 -27 -7 -28 -10 -28 -66 l0
-59 90 23 90 23 0 -334 0 -334 -90 0 -90 0 0 -55 0 -55 275 0 275 0 0 55 0 55
-90 0 -90 0 0 415 c0 326 -3 415 -12 414 -7 0 -78 -18 -158 -38z"/>
<path d="M2800 2305 c-76 -25 -140 -82 -180 -159 -32 -62 -35 -77 -35 -150 1
-95 22 -150 79 -209 50 -50 108 -78 178 -84 74 -7 139 11 196 55 l45 34 -7
-56 c-13 -117 -74 -217 -149 -245 -56 -22 -138 -14 -274 25 -22 6 -23 4 -23
-63 l0 -70 74 -12 c94 -15 212 -15 268 -1 196 53 308 232 308 495 0 211 -79
365 -218 428 -61 27 -197 33 -262 12z m199 -132 c43 -32 71 -98 71 -171 0
-110 -47 -171 -139 -179 -94 -9 -155 66 -156 192 0 85 24 139 76 167 42 23
109 19 148 -9z"/>
</g>
</svg>
